<?xml version="1.0" standalone="no"?>
<!DOCTYPE svg PUBLIC "-//W3C//DTD SVG 20010904//EN"
 "http://www.w3.org/TR/2001/REC-SVG-20010904/DTD/svg10.dtd">
<svg version="1.0" xmlns="http://www.w3.org/2000/svg"
 width="2596.000000pt" height="2596.000000pt" viewBox="0 0 2596.000000 2596.000000"
 preserveAspectRatio="xMidYMid meet">
<metadata>
Created by potrace 1.14, written by Peter Selinger 2001-2017
</metadata>
<g transform="translate(0.000000,2596.000000) scale(0.100000,-0.100000)"
fill="#000000" stroke="none">
<path d="M14228 25955 c-2 -1 -75 -5 -163 -9 -88 -4 -180 -8 -205 -11 -25 -2
-90 -6 -145 -10 -55 -3 -118 -8 -140 -10 -22 -2 -69 -7 -105 -10 -36 -3 -87
-8 -115 -11 -27 -2 -72 -7 -100 -10 -99 -10 -141 -14 -200 -19 -33 -4 -71 -8
-85 -10 -14 -2 -54 -7 -90 -10 -56 -5 -113 -11 -363 -40 -90 -10 -135 -16
-212 -26 -44 -5 -98 -12 -120 -15 -22 -2 -56 -7 -75 -10 -19 -2 -51 -7 -70 -9
-19 -3 -51 -7 -70 -10 -63 -9 -94 -13 -145 -20 -27 -3 -61 -8 -74 -10 -13 -2
-45 -7 -70 -11 -25 -4 -53 -8 -61 -9 -8 -2 -51 -8 -95 -15 -129 -19 -471 -77
-745 -127 -24 -4 -470 -92 -500 -98 -622 -131 -1301 -314 -1855 -500 -211 -71
-550 -195 -629 -229 -17 -7 -56 -23 -86 -35 -30 -12 -64 -26 -75 -31 -11 -5
-65 -28 -120 -51 -86 -36 -135 -57 -230 -99 -179 -80 -618 -304 -800 -410 -60
-35 -119 -68 -130 -74 -11 -6 -31 -18 -45 -27 -329 -208 -444 -285 -630 -423
-92 -68 -318 -247 -370 -293 -14 -12 -36 -31 -50 -43 -155 -132 -519 -490
-625 -615 -33 -38 -62 -72 -65 -75 -26 -24 -178 -213 -266 -330 -549 -730
-947 -1583 -1188 -2545 -31 -127 -97 -425 -110 -500 -3 -16 -7 -39 -9 -50 -6
-26 -15 -80 -23 -130 -3 -22 -7 -42 -9 -45 -2 -3 -7 -35 -10 -70 -4 -36 -8
-67 -10 -71 -2 -3 -7 -30 -10 -60 -3 -30 -7 -65 -10 -79 -2 -14 -7 -43 -9 -65
-3 -22 -10 -76 -16 -120 -5 -44 -12 -102 -14 -130 -3 -27 -7 -79 -11 -115 -12
-126 -16 -171 -30 -380 -14 -209 -20 -465 -20 -860 0 -465 10 -773 31 -995 3
-33 7 -243 9 -468 4 -429 7 -503 31 -707 14 -123 64 -397 84 -465 5 -16 11
-43 14 -58 3 -16 12 -50 20 -75 8 -26 24 -81 36 -122 13 -41 26 -79 31 -85 5
-5 9 -16 9 -25 0 -22 61 -172 125 -308 132 -277 304 -522 515 -732 235 -236
477 -402 773 -530 42 -18 77 -37 77 -40 0 -4 -11 -18 -24 -31 -39 -40 -45 -61
-53 -185 -14 -222 -6 -938 11 -1031 2 -11 7 -53 11 -94 12 -124 15 -148 31
-259 13 -87 43 -259 49 -280 2 -8 6 -31 9 -50 8 -54 80 -331 119 -460 36 -121
43 -157 52 -280 10 -147 25 -326 30 -370 2 -19 6 -64 10 -100 3 -36 10 -108
16 -160 5 -52 12 -115 14 -140 4 -42 8 -74 20 -175 3 -22 7 -62 10 -90 4 -27
8 -61 10 -75 2 -14 9 -63 15 -110 17 -126 20 -152 25 -180 2 -14 7 -45 10 -70
11 -84 75 -456 100 -586 14 -71 28 -142 31 -159 10 -59 76 -352 101 -450 14
-55 27 -109 29 -121 8 -45 116 -407 153 -515 80 -233 323 -831 536 -1314 214
-487 495 -1047 787 -1565 253 -451 669 -1061 982 -1440 264 -319 541 -610 821
-861 200 -178 545 -435 760 -566 505 -306 1002 -501 1525 -597 97 -18 104 -19
295 -42 210 -26 665 -25 920 1 107 11 200 22 255 30 14 2 61 9 105 15 267 38
481 78 877 165 170 37 619 167 858 248 1215 414 2297 1041 3259 1892 197 173
545 524 730 735 46 52 89 100 95 105 6 6 27 30 46 55 19 25 41 51 48 59 22 23
164 201 248 311 182 238 452 638 584 864 264 454 494 924 666 1360 118 299
261 725 336 1001 37 138 105 402 112 435 31 154 108 493 116 515 7 18 15 25
25 21 94 -36 239 -79 315 -94 145 -29 376 -23 505 12 246 66 474 203 681 410
320 320 625 870 839 1511 46 136 120 384 130 435 2 8 12 51 24 96 17 68 36
151 57 249 11 54 34 173 39 200 2 17 7 41 10 55 8 41 15 81 26 155 20 134 28
190 34 250 4 33 8 67 10 75 2 8 7 51 11 95 3 44 8 96 9 115 26 256 27 885 1
1030 -3 14 -7 50 -10 81 -19 186 -85 443 -151 584 -158 342 -396 517 -737 541
-46 4 -84 7 -84 8 -1 0 10 26 25 56 81 168 193 416 258 570 40 96 78 184 83
195 105 230 372 1032 454 1365 2 8 13 51 24 95 42 162 119 522 136 630 3 17
12 71 20 120 33 192 53 379 73 665 12 177 9 700 -5 835 -20 187 -21 204 -27
300 -16 245 -24 315 -52 455 -14 69 -29 133 -34 142 -5 10 -7 18 -5 18 9 0
-72 226 -109 306 -19 41 -35 77 -35 79 0 9 -100 180 -143 245 -117 175 -318
398 -528 585 -333 298 -555 456 -859 613 -182 94 -166 79 -176 169 -4 43 -8
80 -9 83 0 3 -4 26 -8 51 -141 877 -489 1705 -1015 2419 -131 178 -180 238
-332 405 -155 171 -419 418 -570 535 -25 19 -47 37 -50 40 -15 18 -234 175
-355 255 -425 281 -891 504 -1418 679 -170 57 -495 150 -566 162 -14 3 -51 11
-81 19 -62 15 -277 61 -330 70 -19 3 -46 8 -60 10 -49 10 -66 13 -145 25 -44
7 -89 14 -100 16 -11 2 -44 6 -73 10 -29 3 -63 7 -75 10 -22 4 -69 10 -157 19
-198 22 -275 29 -448 40 -57 4 -127 9 -155 12 -57 5 -974 13 -979 8z m3822
-3060 c14 -2 47 -6 73 -10 50 -7 74 -11 117 -20 14 -3 34 -7 45 -9 110 -23
281 -82 403 -141 543 -261 903 -752 1073 -1463 39 -162 74 -404 85 -581 l6
-94 -77 89 c-43 49 -89 103 -104 119 -14 17 -48 57 -76 90 -27 33 -54 65 -60
71 -5 6 -30 35 -55 65 -25 29 -72 85 -105 124 -33 38 -184 216 -335 395 -151
179 -279 330 -285 336 -18 20 -59 68 -135 159 -41 50 -80 96 -87 103 -7 7 -29
34 -50 60 -21 26 -41 49 -44 52 -4 3 -23 25 -44 50 -20 25 -56 68 -80 95 -51
59 -322 379 -350 414 -11 13 -35 41 -52 61 -18 20 -29 40 -25 44 6 7 84 2 162
-9z m3168 -2949 c56 -20 140 -76 183 -123 34 -37 105 -136 128 -180 l12 -23
-53 21 c-29 12 -110 43 -179 70 -70 26 -142 55 -160 63 -19 8 -90 36 -159 62
-69 26 -129 50 -133 54 -12 10 91 58 140 66 21 3 39 7 41 9 9 8 143 -6 180
-19z m-5543 -840 c88 -4 187 -8 220 -11 154 -12 202 -16 225 -20 14 -2 62 -6
106 -10 45 -3 97 -7 115 -10 19 -2 59 -6 89 -9 30 -4 71 -9 90 -11 19 -2 58
-7 85 -10 28 -3 66 -8 85 -11 19 -3 50 -7 68 -9 36 -5 53 -7 222 -30 63 -9
126 -18 140 -21 87 -15 268 -45 294 -49 17 -3 42 -7 56 -10 14 -3 39 -7 55
-10 17 -3 41 -7 55 -10 14 -3 50 -9 80 -15 30 -6 64 -12 75 -14 11 -3 67 -14
125 -26 58 -11 114 -23 125 -25 103 -23 126 -30 134 -39 6 -7 12 -38 15 -71 3
-33 8 -80 11 -105 3 -25 7 -70 10 -100 2 -30 6 -71 9 -90 3 -19 8 -57 11 -85
5 -47 49 -315 59 -360 19 -85 38 -174 42 -193 17 -86 145 -475 184 -557 5 -11
38 -85 73 -165 36 -80 99 -216 141 -303 42 -87 76 -160 76 -162 0 -3 23 -51
51 -107 99 -203 202 -445 281 -663 34 -96 116 -341 122 -370 1 -5 12 -41 24
-80 18 -59 33 -118 88 -335 14 -55 55 -241 60 -270 3 -19 9 -51 14 -70 5 -19
12 -52 16 -74 3 -21 8 -48 10 -60 2 -11 8 -46 14 -76 6 -30 12 -66 15 -80 12
-57 15 -78 21 -130 3 -30 8 -58 10 -61 2 -4 6 -26 9 -50 3 -24 7 -54 9 -66 3
-11 8 -43 12 -70 3 -26 8 -57 10 -68 2 -11 9 -58 14 -105 6 -47 12 -92 15
-100 2 -8 6 -49 10 -91 5 -59 3 -76 -7 -76 -7 0 -30 -3 -51 -7 -21 -3 -59 -8
-85 -11 -26 -3 -54 -8 -62 -10 -14 -4 -46 -9 -130 -19 -19 -3 -84 -12 -145
-21 -60 -9 -126 -18 -145 -20 -19 -3 -46 -7 -60 -10 -14 -2 -45 -7 -70 -10
-25 -4 -88 -13 -140 -21 -52 -8 -126 -19 -165 -24 -38 -6 -77 -12 -85 -15 -8
-2 -37 -6 -65 -10 -27 -3 -75 -10 -105 -15 -30 -5 -71 -12 -90 -15 -19 -3 -46
-7 -60 -10 -14 -2 -43 -7 -65 -10 -22 -3 -83 -12 -135 -21 -52 -9 -108 -18
-125 -20 -16 -3 -124 -21 -240 -40 -115 -19 -223 -37 -240 -40 -47 -7 -162
-27 -265 -45 -138 -24 -176 -31 -195 -33 -11 -2 -33 -6 -50 -9 -16 -4 -46 -9
-65 -12 -19 -3 -72 -12 -118 -21 -46 -8 -92 -12 -103 -9 -11 4 -72 38 -137 76
-281 168 -585 292 -904 369 -145 35 -142 35 -263 56 -128 22 -142 23 -370 49
-231 25 -760 25 -1020 0 -22 -2 -67 -7 -100 -10 -67 -6 -264 -32 -310 -40 -16
-3 -55 -10 -85 -15 -30 -6 -65 -12 -76 -14 -12 -2 -37 -7 -55 -10 -145 -23
-558 -133 -679 -180 -141 -56 -190 -77 -305 -136 -71 -36 -188 -103 -260 -148
l-130 -82 100 96 c110 106 210 184 307 241 34 21 65 40 68 43 10 10 200 100
272 128 72 29 216 78 254 87 10 3 72 18 136 34 113 29 318 66 415 76 26 3 62
7 78 10 178 27 951 28 1195 1 19 -3 67 -7 105 -11 39 -4 88 -9 110 -11 53 -6
343 -44 375 -49 45 -7 84 -14 115 -19 17 -3 59 -10 95 -16 36 -6 79 -13 95
-16 66 -11 288 -57 415 -85 74 -17 142 -32 150 -34 8 -1 35 -8 60 -15 25 -7
52 -13 60 -15 8 -2 50 -12 93 -23 l79 -20 -6 46 c-16 135 -82 302 -163 416
-52 74 -187 203 -273 262 -155 107 -402 215 -610 269 -14 3 -47 12 -75 20 -53
14 -234 50 -299 60 -21 3 -41 7 -45 9 -3 2 -33 7 -66 10 -33 4 -74 8 -91 11
-204 27 -438 39 -754 39 -240 0 -578 -10 -655 -19 -16 -3 -66 -7 -110 -10 -96
-7 -171 -14 -205 -20 -14 -2 -54 -7 -90 -10 -36 -4 -78 -8 -95 -11 -16 -2 -52
-6 -80 -9 -27 -3 -61 -8 -75 -10 -53 -9 -87 -14 -130 -20 -96 -13 -380 -67
-480 -91 -58 -14 -114 -27 -125 -30 -104 -20 -285 -91 -321 -125 -29 -27 -70
-119 -88 -196 -19 -84 -14 -335 9 -400 12 -36 -23 -17 -83 44 -77 78 -129 167
-177 303 -18 52 -35 88 -38 80 -16 -52 -24 -138 -22 -248 4 -220 37 -342 130
-482 90 -136 251 -265 378 -304 26 -8 21 -21 -23 -56 l-40 -32 -73 56 c-39 31
-152 119 -251 196 -98 78 -181 139 -183 137 -7 -8 38 -129 69 -186 60 -109
146 -203 245 -269 l54 -36 -28 -25 c-15 -14 -66 -60 -113 -101 -46 -41 -94
-84 -105 -95 -138 -134 -134 -130 -158 -116 -100 63 -353 169 -440 185 -15 3
-55 10 -89 16 -80 15 -257 19 -355 8 -161 -18 -449 -111 -543 -174 -19 -13
-38 -24 -42 -24 -5 0 -58 -32 -118 -71 l-111 -71 -57 37 c-72 48 -132 95 -132
103 0 4 18 15 39 25 62 28 165 112 203 164 45 60 74 125 83 183 7 45 7 45 -12
25 -26 -27 -279 -265 -340 -320 l-48 -44 -37 22 c-21 11 -38 26 -38 32 0 7 25
40 56 74 146 160 233 312 271 473 24 105 22 262 -6 361 -19 71 -68 184 -75
175 -2 -1 -6 -25 -9 -53 -10 -94 -74 -225 -157 -324 -36 -43 -47 -49 -47 -28
-1 130 -36 295 -74 349 -11 14 -19 30 -19 35 0 12 -90 115 -131 150 -107 93
-296 181 -479 224 -44 10 -228 49 -255 54 -41 7 -172 26 -215 31 -25 3 -61 7
-80 9 -202 26 -702 23 -902 -5 -73 -10 -93 -14 -148 -25 -14 -2 -41 -7 -60
-10 -69 -12 -230 -55 -332 -91 -147 -51 -142 -50 -135 -31 3 9 45 83 93 164
48 81 98 168 112 193 14 25 44 79 67 120 65 117 183 338 380 715 55 105 88
168 150 280 346 631 862 1154 1405 1426 41 20 56 24 58 14 7 -28 -159 -321
-259 -456 -190 -259 -369 -420 -642 -580 -96 -55 -124 -117 -91 -198 20 -50
83 -101 117 -96 12 2 43 6 70 10 26 3 102 17 170 31 67 13 132 26 145 29 12 2
32 7 43 10 12 4 31 8 42 10 12 1 92 19 177 39 85 20 164 38 175 40 11 3 88 21
170 41 83 20 161 39 174 41 14 3 28 7 33 10 4 3 16 7 25 9 10 2 54 13 98 24
44 12 89 24 100 26 11 3 81 23 155 46 74 22 151 45 170 51 82 24 406 145 545
203 218 92 485 224 647 320 9 5 43 25 75 44 70 41 370 243 398 268 11 10 38
31 60 47 178 131 468 407 652 621 177 205 285 353 530 725 240 364 603 606
1156 771 120 36 248 68 327 83 19 3 46 8 60 11 61 12 250 44 300 50 30 4 66 9
80 10 14 2 57 7 95 10 39 4 81 8 94 10 12 2 78 7 145 11 66 4 122 7 123 8 5 4
813 -3 958 -8z m-989 -5770 c77 -4 149 -8 160 -10 10 -2 46 -7 79 -11 32 -4
66 -8 75 -10 8 -1 58 -10 110 -19 90 -15 107 -19 163 -31 12 -3 31 -7 42 -9
109 -22 358 -99 500 -156 229 -91 553 -286 576 -347 8 -23 12 -42 24 -145 3
-24 7 -59 10 -78 3 -19 7 -55 10 -80 2 -25 9 -85 15 -135 17 -144 24 -319 24
-635 0 -285 -9 -593 -18 -621 -3 -8 -7 -36 -10 -64 -13 -115 -20 -155 -47
-289 -37 -183 -34 -168 -75 -304 -120 -396 -339 -726 -594 -894 -75 -50 -111
-69 -235 -123 -66 -30 -355 -100 -495 -121 -19 -3 -42 -7 -50 -9 -8 -2 -28 -6
-45 -9 -16 -2 -73 -11 -125 -20 -52 -8 -117 -18 -145 -21 -27 -3 -66 -8 -85
-11 -78 -10 -109 -14 -195 -21 -117 -10 -633 -10 -753 0 -129 11 -330 46 -462
82 -8 2 -41 11 -73 19 -91 25 -243 84 -357 139 -96 46 -241 130 -272 157 -7 6
-44 34 -83 62 -38 28 -124 106 -190 172 -264 265 -455 586 -598 1006 -41 121
-117 396 -130 475 -3 17 -10 55 -17 85 -25 129 -55 319 -65 425 -3 28 -7 70
-10 95 -17 164 -17 186 2 264 16 68 24 85 63 125 85 86 324 294 434 377 152
114 202 149 291 205 281 175 592 290 1025 380 123 26 302 57 365 64 28 3 61 8
75 10 67 12 134 19 300 30 58 4 106 8 107 10 5 4 544 -3 679 -9z m7579 -31
c76 -26 129 -60 190 -121 151 -152 243 -428 282 -844 16 -165 7 -840 -12 -970
-5 -34 -14 -124 -20 -190 -3 -30 -7 -66 -10 -80 -2 -14 -7 -47 -10 -75 -5 -43
-46 -289 -58 -350 -2 -11 -7 -36 -11 -55 -44 -241 -148 -629 -246 -915 -250
-727 -584 -1248 -968 -1512 -64 -44 -190 -109 -229 -118 -10 -3 -43 -12 -73
-21 -61 -18 -298 -25 -385 -11 -128 21 -346 114 -340 145 5 28 24 163 31 221
3 30 7 61 9 70 1 9 6 50 10 91 4 41 9 82 10 90 2 8 6 53 10 100 4 47 9 94 11
105 2 11 7 62 10 113 5 72 2 100 -9 125 -51 107 -180 124 -259 34 -10 -11 -18
-23 -19 -26 0 -3 -2 -15 -4 -26 -12 -65 -15 -87 -20 -150 -3 -38 -8 -79 -10
-90 -2 -11 -7 -51 -10 -90 -3 -38 -8 -83 -10 -100 -2 -16 -7 -52 -10 -80 -21
-173 -31 -244 -40 -295 -3 -14 -7 -47 -11 -75 -3 -27 -9 -68 -14 -90 -5 -22
-11 -60 -15 -85 -5 -39 -15 -96 -32 -190 -2 -14 -18 -90 -34 -170 -17 -80 -33
-158 -36 -175 -10 -62 -125 -515 -160 -630 -119 -403 -234 -726 -381 -1076
-185 -440 -480 -1009 -700 -1349 -252 -392 -481 -699 -782 -1050 -107 -124
-172 -192 -465 -485 -238 -237 -477 -454 -639 -580 -22 -16 -74 -58 -117 -93
-202 -161 -588 -428 -844 -584 -731 -445 -1466 -767 -2295 -1006 -90 -26 -334
-91 -365 -96 -5 -1 -19 -5 -30 -9 -11 -3 -31 -8 -45 -11 -14 -2 -55 -11 -91
-20 -37 -8 -78 -17 -90 -20 -13 -2 -60 -12 -104 -21 -110 -23 -116 -24 -150
-30 -16 -3 -66 -12 -110 -20 -97 -18 -125 -22 -190 -31 -27 -3 -52 -8 -55 -9
-3 -2 -37 -7 -75 -10 -39 -4 -72 -8 -75 -10 -3 -2 -34 -6 -70 -9 -36 -4 -76
-9 -90 -11 -112 -20 -677 -28 -870 -12 -222 18 -593 97 -830 176 -254 85 -527
206 -735 326 -55 32 -109 63 -120 69 -60 34 -368 245 -473 326 -197 149 -330
269 -583 521 -340 340 -568 611 -880 1049 -77 107 -261 378 -268 394 -2 4 -24
40 -50 80 -39 58 -176 284 -216 353 -5 10 -24 43 -42 73 -167 293 -425 788
-573 1105 -233 496 -620 1415 -721 1715 -38 112 -119 381 -135 450 -7 30 -21
89 -32 130 -19 72 -67 279 -77 330 -3 14 -8 39 -10 55 -3 17 -8 37 -10 45 -2
8 -7 30 -10 48 -3 18 -12 63 -19 100 -8 37 -26 132 -40 212 -32 185 -37 210
-41 240 -2 14 -11 70 -19 125 -17 102 -24 151 -31 220 -3 22 -7 51 -10 65 -3
14 -7 43 -10 65 -2 22 -7 58 -10 80 -8 57 -14 111 -20 175 -3 30 -8 71 -11 90
-3 19 -8 55 -10 80 -2 25 -6 69 -9 98 -3 28 -3 52 0 52 4 0 18 -15 33 -32 184
-225 468 -432 703 -513 29 -11 59 -22 64 -26 13 -9 216 -59 264 -65 20 -2 47
-7 61 -10 130 -26 886 -26 1130 1 19 2 62 6 95 10 33 3 87 10 120 15 33 5 78
12 100 15 65 9 287 54 325 65 19 6 44 13 54 15 36 8 221 67 251 80 17 7 46 18
65 25 42 16 259 120 315 153 99 56 229 147 310 217 60 52 204 201 246 257 24
32 47 60 52 61 4 2 7 7 7 12 0 4 19 36 42 70 23 35 70 118 105 184 l63 121 -5
-120 c-3 -66 -8 -142 -11 -170 -3 -27 -8 -70 -9 -95 -4 -65 -42 -323 -60 -409
-38 -184 -90 -381 -141 -534 -22 -67 -25 -89 -19 -145 12 -123 61 -280 139
-445 l28 -58 -40 -37 c-67 -62 -76 -141 -24 -211 38 -51 67 -58 208 -54 l123
3 85 -55 c170 -111 357 -189 566 -235 198 -44 398 -58 447 -32 12 7 35 29 50
49 33 42 36 108 9 160 -29 57 -68 73 -216 88 -141 14 -320 52 -421 90 -41 16
-89 46 -130 80 -35 30 -100 73 -144 96 -44 22 -101 58 -127 80 -95 79 -209
293 -238 445 -11 58 -10 66 23 170 35 108 85 299 106 404 19 96 21 103 40 225
22 132 31 200 36 263 2 23 6 63 9 89 33 257 39 932 11 1238 -2 22 -6 83 -10
135 -3 52 -8 102 -10 110 -2 8 -7 47 -10 85 -4 39 -8 81 -10 95 -2 14 -7 43
-9 65 -8 59 -35 246 -40 275 -3 14 -12 68 -21 120 -10 52 -18 100 -19 105 -14
61 -23 88 -47 135 -16 30 -37 97 -48 148 l-19 94 97 63 c172 112 283 164 429
200 91 23 101 25 232 30 219 9 453 -58 606 -174 52 -40 51 -36 59 -171 6 -93
9 -122 20 -225 93 -862 337 -1540 732 -2030 284 -352 621 -589 1063 -748 52
-18 113 -38 135 -44 65 -18 127 -34 147 -39 10 -2 26 -6 36 -8 58 -14 209 -42
277 -52 22 -3 51 -8 65 -10 101 -17 580 -23 805 -11 133 7 171 11 326 33 58 8
121 16 140 19 19 2 73 11 122 19 48 9 104 18 123 21 20 2 44 7 53 9 9 3 32 7
51 10 42 6 201 41 285 62 214 54 405 144 570 269 47 35 229 215 269 265 101
127 216 329 290 506 39 97 118 337 130 397 3 12 12 56 21 97 23 105 23 104 29
141 23 144 36 231 41 274 3 28 8 66 10 85 19 143 25 705 11 985 -7 157 -10
191 -21 296 -12 118 -15 144 -20 179 -3 19 -7 55 -10 80 -3 25 -7 59 -10 75
-3 17 -7 51 -10 77 l-4 46 47 11 c46 9 267 48 327 57 17 3 53 9 80 14 28 5 66
12 85 14 19 3 44 7 55 10 11 2 40 7 65 11 25 4 52 9 60 10 8 2 37 6 63 9 26 4
71 11 100 17 29 5 68 12 87 15 19 3 58 9 85 14 28 5 68 12 90 15 22 3 92 14
155 25 135 22 182 30 230 36 19 2 46 6 60 9 14 3 39 7 55 9 29 4 72 11 125 21
14 2 45 7 70 10 25 4 56 8 70 10 14 2 102 16 195 30 94 14 186 28 205 30 46 7
224 33 275 39 22 3 51 8 65 10 23 4 56 8 160 22 19 3 45 7 58 10 17 3 25 -1
32 -20 5 -13 9 -33 8 -43 0 -10 2 -40 5 -68 3 -27 9 -81 12 -120 3 -38 8 -92
10 -120 2 -27 7 -90 10 -140 3 -49 7 -115 10 -145 4 -50 7 -91 20 -300 5 -72
13 -213 20 -360 3 -52 7 -139 10 -193 3 -54 12 -111 19 -125 29 -56 110 -93
170 -78 39 10 87 56 109 106 11 25 23 47 27 50 7 5 197 293 410 620 144 222
180 270 210 277 32 7 86 42 178 116 75 60 193 151 232 177 12 8 40 28 62 43
145 103 404 245 570 311 72 29 187 62 273 79 54 10 253 -1 300 -18z m-13730
-445 c50 -18 128 -50 175 -72 86 -40 285 -166 277 -175 -3 -2 -80 32 -172 76
-92 45 -168 81 -171 81 -2 0 -32 13 -66 28 -35 16 -112 48 -173 71 -60 23
-118 47 -127 52 -10 5 -25 9 -33 9 -8 0 -15 4 -15 9 0 11 183 -36 305 -79z
m-1295 -35 c129 -7 140 -8 300 -36 212 -36 647 -155 765 -209 11 -5 61 -25
110 -45 233 -94 659 -328 831 -457 46 -34 53 -44 60 -86 4 -26 8 -51 10 -57 1
-5 7 -37 13 -70 6 -33 13 -71 16 -85 26 -126 62 -398 73 -545 13 -193 5 -664
-13 -750 -2 -11 -7 -36 -9 -55 -23 -161 -88 -383 -157 -538 -98 -218 -286
-453 -479 -598 -198 -150 -463 -276 -735 -350 -12 -3 -28 -7 -135 -33 -47 -11
-101 -23 -120 -26 -19 -3 -42 -8 -50 -10 -8 -3 -46 -9 -85 -14 -38 -6 -86 -13
-106 -16 -131 -21 -330 -29 -734 -29 -401 1 -474 5 -604 35 -441 101 -749 358
-997 829 -41 78 -95 205 -114 270 -12 41 -26 80 -31 86 -32 39 -130 413 -162
619 -3 17 -10 59 -16 95 -10 64 -16 108 -26 193 -3 23 -7 58 -10 77 -2 19 -7
69 -11 110 -3 41 -8 93 -11 115 -8 64 -12 826 -5 875 7 42 11 47 82 91 356
224 679 374 1040 483 104 31 212 58 280 71 14 3 59 12 102 20 42 8 98 17 125
20 27 3 59 7 71 10 11 2 52 7 89 10 37 4 69 8 71 10 5 4 458 -3 572 -10z"/>
<path d="M16256 14088 c9 -18 66 -116 128 -216 115 -191 132 -204 101 -81 -32
125 -84 209 -181 289 -59 48 -70 50 -48 8z"/>
<path d="M14258 12575 c-2 -1 -32 -6 -68 -9 -284 -29 -570 -147 -830 -340
-110 -82 -286 -255 -400 -394 -119 -144 -131 -179 -79 -231 33 -34 72 -40 104
-17 11 8 49 51 85 96 83 105 272 298 371 377 81 64 134 101 209 141 103 56
121 64 127 58 3 -3 -8 -36 -24 -73 -57 -127 -72 -194 -68 -307 6 -202 103
-386 265 -508 63 -48 161 -91 260 -115 8 -2 53 -6 100 -8 319 -16 597 204 666
526 10 46 11 195 1 243 -17 90 -64 196 -123 279 -19 26 -34 49 -34 51 0 7 168
-40 263 -74 249 -88 474 -206 756 -394 84 -56 154 -96 168 -96 33 0 83 51 83
85 0 41 -41 86 -149 163 -214 153 -483 298 -716 385 -110 41 -263 88 -325 101
-142 29 -233 46 -270 51 -47 7 -366 15 -372 10z"/>
<path d="M21990 12732 c-31 -4 -149 -38 -210 -59 -180 -63 -388 -181 -563
-320 -140 -112 -373 -363 -499 -538 -155 -215 -341 -581 -459 -902 -41 -114
-56 -158 -76 -233 -3 -8 -5 -34 -5 -56 -2 -107 136 -180 227 -120 44 29 49 39
165 359 l43 118 17 -29 c10 -16 40 -51 68 -79 27 -27 57 -64 67 -82 26 -51 41
-166 39 -301 -2 -138 -19 -205 -77 -310 -41 -74 -148 -178 -223 -217 -77 -41
-111 -75 -125 -125 -23 -87 53 -188 141 -188 42 0 170 60 239 112 152 114 261
275 316 464 36 124 36 127 40 264 6 258 -41 422 -163 561 -29 34 -58 74 -63
88 -18 46 -10 157 27 366 10 58 52 131 137 240 284 363 638 609 979 679 97 20
118 28 145 57 63 69 53 167 -23 225 -33 26 -100 36 -164 26z"/>
<path d="M11665 7859 c-75 -10 -94 -15 -170 -40 -158 -51 -321 -154 -342 -216
-30 -88 29 -184 124 -199 35 -5 53 1 154 51 184 93 193 95 374 99 72 2 141 9
155 15 35 17 71 73 75 118 6 57 -25 118 -72 141 -21 11 -51 22 -68 26 -47 10
-175 13 -230 5z"/>
<path d="M15000 6273 c-14 -2 -50 -8 -80 -13 -30 -5 -71 -12 -90 -15 -19 -3
-75 -15 -125 -26 -49 -11 -103 -22 -120 -24 -30 -4 -48 -7 -141 -26 -28 -5
-61 -12 -75 -14 -13 -2 -37 -7 -54 -9 -113 -21 -143 -26 -170 -30 -16 -3 -61
-10 -100 -16 -38 -7 -83 -14 -100 -16 -16 -3 -55 -9 -85 -14 -30 -5 -71 -12
-90 -15 -19 -3 -46 -7 -60 -10 -14 -2 -45 -7 -70 -10 -25 -3 -70 -10 -100 -15
-30 -5 -75 -11 -100 -14 -25 -4 -54 -8 -65 -10 -11 -2 -45 -7 -76 -10 -31 -4
-65 -8 -75 -10 -11 -2 -41 -7 -69 -10 -27 -4 -61 -9 -75 -11 -14 -2 -52 -6
-85 -10 -33 -3 -89 -10 -125 -15 -60 -9 -275 -34 -380 -45 -25 -2 -67 -7 -95
-10 -27 -3 -68 -7 -90 -9 -39 -5 -105 -11 -227 -21 -35 -3 -79 -8 -98 -10 -19
-2 -78 -7 -130 -10 -52 -4 -115 -8 -140 -10 -25 -2 -90 -7 -145 -10 -55 -4
-125 -8 -155 -10 -393 -27 -1523 -27 -1700 0 -14 2 -68 7 -120 10 -52 3 -106
8 -120 10 -14 2 -54 6 -90 10 -36 3 -76 7 -90 10 -14 2 -49 7 -79 10 -30 4
-61 8 -70 10 -16 3 -116 17 -136 20 -37 4 -128 20 -235 42 -170 34 -230 39
-267 20 -39 -21 -99 -88 -119 -134 -19 -45 -25 -143 -13 -206 29 -155 174
-404 358 -616 179 -206 515 -518 695 -646 16 -11 40 -29 55 -41 113 -88 400
-259 596 -354 250 -121 598 -236 829 -275 17 -3 38 -8 46 -10 8 -2 38 -7 65
-10 28 -4 95 -12 150 -20 100 -12 531 -13 625 0 25 3 59 7 75 10 17 2 53 7 80
10 304 40 661 134 965 255 377 149 772 379 1124 653 76 60 144 114 151 120 6
7 31 28 55 47 103 84 370 345 492 480 239 269 468 582 543 742 28 61 33 83 32
135 -4 116 -85 190 -217 196 -36 1 -76 1 -90 0z m55 -243 c13 -22 -280 -423
-436 -595 -19 -22 -64 -71 -98 -110 -100 -111 -346 -350 -445 -433 -50 -41
-93 -78 -96 -82 -21 -30 -504 -370 -525 -370 -3 0 -21 -11 -39 -25 -18 -14
-36 -25 -40 -25 -3 0 -24 -11 -47 -25 -109 -69 -441 -224 -604 -281 -38 -14
-77 -28 -85 -31 -8 -4 -17 -7 -20 -8 -18 -4 -160 -48 -180 -55 -56 -21 -299
-75 -415 -94 -208 -34 -296 -41 -545 -41 -258 0 -340 6 -515 39 -656 124
-1315 488 -1849 1021 -311 310 -488 568 -512 744 l-6 50 33 -9 c19 -5 49 -12
67 -15 102 -17 102 -17 237 -40 44 -8 100 -17 125 -20 73 -8 133 -16 160 -21
14 -3 52 -7 85 -9 33 -3 71 -7 85 -10 14 -3 50 -7 80 -9 355 -31 603 -40 1040
-40 559 0 988 19 1550 69 25 2 77 7 115 10 83 7 130 12 205 20 30 4 79 8 107
11 29 2 65 6 80 8 16 3 60 8 98 11 39 3 81 8 95 10 24 4 47 7 160 20 30 4 66
8 80 10 24 4 124 17 235 31 28 3 57 8 66 9 9 2 40 6 70 10 30 3 79 10 109 15
30 6 75 12 100 15 25 3 153 23 285 45 132 22 257 42 279 46 21 3 48 8 60 10
11 2 77 13 145 25 68 11 134 23 145 25 18 3 76 14 206 38 14 3 50 10 80 16 30
6 66 13 80 16 14 3 32 7 40 9 8 2 31 7 50 10 19 3 36 7 37 9 7 7 63 4 68 -4z"/>
<path d="M12919 3328 c-124 -60 -255 -112 -364 -144 -83 -25 -271 -73 -315
-80 -14 -3 -47 -9 -75 -14 -27 -5 -70 -12 -95 -15 -25 -3 -56 -8 -70 -10 -155
-26 -805 -27 -972 -1 -18 2 -60 8 -93 11 -33 4 -71 8 -84 10 -32 5 -60 -11
-71 -41 -24 -63 13 -80 240 -109 158 -20 670 -27 835 -12 44 4 103 10 130 13
64 6 281 41 343 55 26 6 57 13 69 15 53 10 276 79 354 109 141 54 324 145 338
166 25 42 1 85 -55 95 -6 1 -58 -21 -115 -48z"/>
<path d="M7255 12042 c-180 -20 -434 -117 -606 -233 -223 -150 -509 -446 -509
-525 0 -34 40 -74 80 -80 39 -6 37 -8 206 167 121 126 232 225 307 275 65 43
186 110 225 125 l23 9 -26 -43 c-81 -129 -110 -232 -109 -382 1 -93 5 -123 28
-190 66 -193 208 -341 392 -411 86 -32 122 -38 224 -39 101 0 135 6 215 33
208 72 354 228 421 447 37 123 21 317 -37 440 -12 25 -19 48 -16 52 10 10 283
-156 307 -187 3 -3 19 -16 36 -28 17 -11 79 -62 139 -112 121 -101 148 -110
191 -63 62 67 39 106 -171 288 -59 50 -241 173 -330 222 -190 105 -414 189
-577 217 -91 15 -337 26 -413 18z"/>
</g>
</svg>
