<svg width="100" height="100" viewBox="0 0 100 100" fill="none" xmlns="http://www.w3.org/2000/svg">
<rect width="100" height="100" fill="#058B8E"/>
<path fill-rule="evenodd" clip-rule="evenodd" d="M78.8023 36.8368C76.453 33.1978 66.9105 26.3506 66.9105 26.3506L66.0455 31.5406H38.4774L42.1534 11H28.4231L18.3699 65.3784H32.2076C32.2076 65.3784 34.0104 55.3729 35.0902 49.3788C35.5531 46.8124 36.5315 46.0261 36.5315 46.0261C36.5315 46.0261 37.0111 44.981 38.9093 44.981H81.2887C81.2887 44.981 81.3615 40.8015 78.8023 36.8368" fill="white"/>
<path fill-rule="evenodd" clip-rule="evenodd" d="M67.11 49.0542C67.11 49.0542 65.306 59.0596 64.225 65.0538C63.7621 67.6202 62.7837 68.4064 62.7837 68.4064C62.7837 68.4064 62.3041 69.4516 60.4023 69.4516H18.0002C18.0002 69.4516 17.9274 73.6311 20.4879 77.5946C22.8395 81.2347 32.3868 88.0808 32.3868 88.0808L33.253 82.892H63.2264C63.2228 82.929 69.9245 83.1974 73.2796 80.1717C75.803 77.8964 75.9378 76.7355 76.6549 72.7148C78.4076 62.8752 80.9561 49.0542 80.9561 49.0542H67.11Z" fill="white"/>
</svg>
