<?xml version="1.0" standalone="no"?>
<!DOCTYPE svg PUBLIC "-//W3C//DTD SVG 20010904//EN"
 "http://www.w3.org/TR/2001/REC-SVG-20010904/DTD/svg10.dtd">
<svg version="1.0" xmlns="http://www.w3.org/2000/svg"
 width="213.000000pt" height="237.000000pt" viewBox="0 0 213.000000 237.000000"
 preserveAspectRatio="xMidYMid meet">
<metadata>
Created by potrace 1.10, written by Peter Selinger 2001-2011
</metadata>
<g transform="translate(0.000000,237.000000) scale(0.100000,-0.100000)"
fill="#000000" stroke="none">
<path fill="#0ddbcf" d="M1769 2114 c-9 -11 -21 -33 -28 -50 -15 -39 -48 -58 -147 -84 -43
-12 -129 -39 -191 -61 -61 -21 -114 -39 -117 -39 -14 0 -4 22 24 54 36 41 35
42 -65 72 -113 33 -341 18 -415 -28 -18 -11 -17 -14 11 -45 27 -32 37 -53 23
-53 -4 0 -66 20 -138 44 -72 24 -162 53 -201 65 -86 25 -112 42 -120 80 -3 16
-13 35 -21 42 -24 19 -34 -5 -34 -83 0 -93 17 -111 135 -144 49 -14 121 -40
160 -59 92 -43 263 -156 353 -234 39 -33 75 -61 80 -61 5 0 17 10 28 21 32 36
146 124 238 184 109 71 207 116 321 149 115 32 136 53 134 134 -1 31 -4 70 -8
86 -6 27 -7 27 -22 10z"/>
<path fill="#0ddbcf" d="M353 1845 c-3 -9 2 -24 11 -34 14 -15 16 -39 15 -137 -2 -112 -1
-122 26 -177 45 -91 104 -134 221 -162 120 -29 275 26 353 124 l30 38 -30 29
-30 28 -40 -47 c-63 -73 -106 -92 -214 -92 -122 0 -173 27 -222 117 -29 54
-24 161 9 226 31 60 32 58 -61 86 -66 19 -60 19 -68 1z"/>
<path fill="#0ddbcf" d="M1710 1839 c-30 -10 -58 -23 -63 -28 -4 -4 1 -24 13 -43 33 -57 44
-139 26 -201 -30 -101 -111 -156 -231 -157 -90 0 -155 29 -213 95 l-43 49 -31
-31 -30 -31 42 -46 c28 -30 70 -60 117 -82 63 -31 85 -36 147 -37 95 -1 182
31 241 90 70 69 80 99 83 253 3 108 6 137 19 147 17 13 11 43 -9 42 -7 0 -38
-9 -68 -20z"/>
<path fill="#0ddbcf" d="M583 1728 c-75 -94 -35 -215 79 -242 15 -3 48 1 75 10 82 27 120 78
87 115 -23 25 -34 24 -34 -4 0 -34 -26 -65 -64 -75 -74 -21 -129 17 -129 89 0
35 6 48 32 71 l32 28 -26 10 c-34 13 -41 13 -52 -2z"/>
<path fill="#0ddbcf" d="M1505 1725 c-18 -8 -23 -14 -13 -14 47 -2 76 -101 43 -148 -40 -57
-142 -46 -169 19 -8 18 -12 36 -10 40 10 16 -14 7 -30 -11 -32 -35 3 -84 82
-114 62 -25 109 -15 154 32 50 53 57 96 27 158 -26 53 -40 59 -84 38z"/>
<path fill="#0ddbcf" d="M662 1648 c-19 -19 -14 -45 10 -62 19 -13 25 -14 43 -2 25 16 31 42
15 61 -15 18 -52 19 -68 3z"/>
<path fill="#0ddbcf" d="M1422 1648 c-28 -28 -3 -72 39 -66 30 4 47 33 33 56 -14 21 -55 27
-72 10z"/>
<path fill="#0ddbcf" d="M1027 1392 c-42 -43 -44 -52 -18 -107 24 -53 55 -87 73 -80 20 8 78
106 78 132 0 19 -72 93 -90 93 -3 0 -23 -17 -43 -38z"/>
<path fill="#0ddbcf" d="M480 1156 c0 -185 9 -235 59 -316 42 -71 132 -189 144 -190 4 0 7 55
7 122 0 106 -3 129 -25 183 -17 43 -28 100 -37 184 l-11 121 -41 11 c-23 6
-53 17 -68 25 l-28 15 0 -155z"/>
<path fill="#0ddbcf" d="M1644 1300 c-6 -6 -35 -18 -65 -28 l-54 -17 -6 -100 c-8 -110 -22
-182 -44 -226 -11 -20 -15 -63 -15 -155 l0 -128 30 29 c36 35 120 155 144 208
25 55 36 141 36 295 0 127 -4 144 -26 122z"/>
<path fill="#0ddbcf" d="M825 1269 c-27 -10 -69 -18 -92 -19 l-43 0 0 -44 c0 -67 27 -184 57
-245 14 -30 55 -83 89 -117 68 -69 218 -184 238 -184 20 0 180 124 242 187 95
97 129 174 140 321 l7 82 -36 0 c-19 0 -64 9 -99 20 -34 11 -66 20 -70 20 -5
0 -8 -42 -8 -94 0 -52 -5 -107 -11 -123 -5 -15 -45 -63 -87 -105 l-77 -78 -73
73 c-40 39 -80 84 -88 99 -9 18 -14 60 -14 128 0 112 4 108 -75 79z"/>
<path fill="#0ddbcf" d="M750 678 c0 -73 5 -149 10 -169 10 -36 83 -129 101 -129 5 0 9 36 9
80 l0 80 40 -41 40 -41 0 -83 0 -83 57 -36 c32 -20 63 -36 69 -36 6 0 37 17
68 37 l56 37 0 86 c0 85 0 86 35 119 20 18 38 32 40 29 2 -2 5 -34 7 -72 1
-37 6 -70 9 -72 13 -8 85 85 97 124 10 32 18 302 9 302 -1 0 -32 -29 -69 -64
-72 -69 -226 -176 -253 -176 -29 0 -183 107 -253 175 -36 36 -68 65 -69 65 -2
0 -3 -60 -3 -132z"/>
</g>
</svg>
