<svg width="164" height="125" viewBox="0 0 164 125" fill="none" xmlns="http://www.w3.org/2000/svg">
<g clip-path="url(#clip0)">
<path d="M157.2 104.1H59.8001C53.9001 104.1 49.1001 99.3 49.1001 93.4V90.6C49.1001 87 50.9001 83.7 53.8001 81.8L66.7001 73.1C68.9001 71.6 71.8001 72.2 73.3001 74.4C74.8001 76.6 74.2001 79.5 72.0001 81L59.1001 89.7C58.8001 89.9 58.6001 90.3 58.6001 90.6V93.4C58.6001 94 59.1001 94.5 59.7001 94.5H157.1C159.7 94.5 161.9 96.6 161.9 99.3C161.9 102 159.8 104.1 157.2 104.1Z" fill="#218DF0"/>
<path d="M52.9 21.3H23C20.4 21.3 18.2 23.4 18.2 26.1C18.2 28.7 20.3 30.9 23 30.9H52.9V21.3Z" fill="#218DF0"/>
<path d="M61.6 68.9001H33.8C31.2 68.9001 29 66.8 29 64.1C29 61.5 31.1 59.3 33.8 59.3H61.6C64.2 59.3 66.4 61.4 66.4 64.1C66.4 66.8 64.2 68.9001 61.6 68.9001Z" fill="#218DF0"/>
<path d="M16.2999 68.9001H10.1999C7.5999 68.9001 5.3999 66.8 5.3999 64.1C5.3999 61.5 7.4999 59.3 10.1999 59.3H16.2999C18.8999 59.3 21.0999 61.4 21.0999 64.1C21.0999 66.8 18.9999 68.9001 16.2999 68.9001Z" fill="#218DF0"/>
<path d="M10.9 30.8001H4.8C2.1 30.8001 0 28.7001 0 26.0001C0 23.3001 2.1 21.2001 4.8 21.2001H10.9C13.5 21.2001 15.7 23.3001 15.7 26.0001C15.7 28.7001 13.5 30.8001 10.9 30.8001Z" fill="#218DF0"/>
<path d="M107.3 40.3001H81.8C79.2 40.3001 77 38.2001 77 35.5001C77 32.9001 79.1 30.7001 81.8 30.7001H107.2C109.8 30.7001 112 32.8001 112 35.5001C112 38.2001 109.9 40.3001 107.3 40.3001Z" fill="#218DF0"/>
<path d="M55.6999 49.9001H10.6999C8.0999 49.9001 5.8999 47.8 5.8999 45.1C5.8999 42.4 7.9999 40.3 10.6999 40.3H50.8999C53.4999 40.3 55.6999 42.4 55.6999 45.1C55.6999 47.8 58.2999 49.9001 55.6999 49.9001Z" fill="#218DF0"/>
<path d="M19 9.50002H34C34.1 9.50002 34.1 9.50002 34.2 9.50002C36.5 10.2 42.0999 12.7 43.7999 19.5C43.9 19.7 43.9 20 44 20.2L47.5 30.8H50.5C53.0999 30.8 55.2999 32.9 55.2999 35.6C55.2999 38.2 53.2 40.3 50.7 40.4L53.9 49.9H63.9L53.0999 17.2C50.1999 5.40003 40.0999 1.40002 37.0999 0.400024C36.0999 0.100024 35.0999 -0.0999756 34.0999 -0.0999756H19C16.4 -0.0999756 14.2 2.00002 14.2 4.70002C14.2 7.40002 16.4 9.50002 19 9.50002Z" fill="#218DF0"/>
<path d="M161.7 21.3C159.8 18.6 156.7 17 153.4 17H66.5C63.9 17 61.7 19.1 61.7 21.8C61.7 24.4 63.8 26.6 66.5 26.6H153.4C153.5 26.6 153.7 26.6 153.9 26.8C154.1 27 154 27.3 154 27.3L137.6 72.6C137.5 72.8 137.3 73 137.1 73H72C71.8 73 71.5 72.8 71.5 72.6L67.1 59.4H57L62.4 75.6C63.8 79.7 67.6 82.5 72 82.5H137C141.2 82.5 145.1 79.8 146.5 75.8L162.9 30.5C164 27.5 163.6 24 161.7 21.3Z" fill="#218DF0"/>
<path d="M82.9 59.4001H74.8C72.2 59.4001 70 57.3 70 54.6C70 51.9 72.1 49.8 74.8 49.8H82.9C85.5 49.8 87.7 51.9 87.7 54.6C87.7 57.3 85.6 59.4001 82.9 59.4001Z" fill="#218DF0"/>
<path d="M117.1 68.9001H100.3C97.7 68.9001 95.5 66.8 95.5 64.1C95.5 61.5 97.6 59.3 100.3 59.3H117.1C119.7 59.3 121.9 61.4 121.9 64.1C121.8 66.8 119.7 68.9001 117.1 68.9001Z" fill="#218DF0"/>
<path d="M137.2 125C142.226 125 146.3 120.926 146.3 115.9C146.3 110.874 142.226 106.8 137.2 106.8C132.174 106.8 128.1 110.874 128.1 115.9C128.1 120.926 132.174 125 137.2 125Z" fill="#022B3A"/>
<path d="M68.4001 125C73.4258 125 77.5 120.926 77.5 115.9C77.5 110.874 73.4258 106.8 68.4001 106.8C63.3743 106.8 59.3 110.874 59.3 115.9C59.3 120.926 63.3743 125 68.4001 125Z" fill="#022B3A"/>
</g>
<defs>
<clipPath id="clip0">
<rect width="163.5" height="125" fill="none"/>
</clipPath>
</defs>
</svg>
